<?xml version="1.0" standalone="no"?>
<!DOCTYPE svg PUBLIC "-//W3C//DTD SVG 20010904//EN"
 "http://www.w3.org/TR/2001/REC-SVG-20010904/DTD/svg10.dtd">
<svg version="1.0" xmlns="http://www.w3.org/2000/svg"
 width="648.000000pt" height="648.000000pt" viewBox="0 0 648.000000 648.000000"
 preserveAspectRatio="xMidYMid meet">
<metadata>
Created by potrace 1.11, written by Peter Selinger 2001-2013
</metadata>
<g transform="translate(0.000000,648.000000) scale(0.100000,-0.100000)"
fill="#000000" stroke="none">
<path d="M3014 5809 c-631 -40 -1213 -262 -1694 -646 -105 -83 -315 -292 -397
-393 -320 -397 -515 -857 -579 -1367 -19 -152 -22 -470 -5 -623 121 -1110 897
-1921 2061 -2154 556 -111 1209 -73 1730 100 174 58 375 150 519 236 93 55
291 198 291 210 0 8 -247 251 -260 256 -5 2 -37 -19 -72 -46 -299 -234 -692
-387 -1155 -449 -183 -24 -631 -24 -798 0 -661 98 -1174 398 -1494 873 -215
319 -329 663 -362 1096 -52 671 159 1292 596 1756 572 607 1512 879 2371 687
783 -176 1382 -727 1536 -1416 20 -92 23 -129 23 -329 -1 -194 -4 -239 -23
-327 -68 -314 -199 -569 -392 -764 -234 -236 -560 -373 -854 -357 -152 9 -199
42 -198 142 0 39 44 207 151 583 192 674 194 685 195 848 1 149 -18 231 -82
345 -43 77 -155 192 -235 239 -126 74 -336 121 -476 106 -261 -28 -474 -155
-699 -419 -18 -21 -35 -36 -37 -34 -2 2 19 89 46 193 27 105 49 196 49 203 0
9 -59 12 -259 12 -239 0 -260 -1 -265 -17 -3 -10 -21 -81 -41 -158 -20 -77
-39 -148 -41 -157 -5 -16 3 -18 70 -18 42 0 76 -3 76 -6 0 -7 -517 -2057 -526
-2086 -5 -17 9 -18 190 -18 l195 0 10 38 c5 20 69 271 141 557 144 570 151
594 205 740 131 351 349 632 580 748 224 112 484 98 615 -33 51 -51 76 -102
91 -181 18 -98 -6 -228 -106 -574 -187 -648 -216 -763 -222 -870 -14 -257 88
-409 322 -482 93 -28 390 -25 544 5 322 65 595 206 812 422 234 231 394 522
479 871 173 707 -49 1423 -606 1959 -433 417 -1005 658 -1659 700 -174 11
-182 11 -361 -1z"/>
</g>
</svg>
