<?xml version="1.0" encoding="utf-8"?>
<!-- Generator: Adobe Illustrator 20.0.0, SVG Export Plug-In . SVG Version: 6.00 Build 0)  -->
<svg version="1.1" id="Layer_1" xmlns="http://www.w3.org/2000/svg" xmlns:xlink="http://www.w3.org/1999/xlink" x="0px" y="0px"
	 viewBox="-12.5 -1 575 109" enable-background="new -12.5 -1 575 109" xml:space="preserve">
<g>
	<g>
		<path fill="#EC592C" d="M178.531,27.375V67.44c-0.171-0.185-34.218-40.065-34.218-40.065s-3.733,0-5.227,0v53.092
			c2.6,0,6.414,0,7.456,0V40.723l34.286,39.739c0,0,3.454,0,5.068,0V27.375C182.161,27.375,180.936,27.375,178.531,27.375z"/>
		<path fill="#EC592C" d="M336.357,27.375V67.44c-0.171-0.185-34.222-40.065-34.222-40.065s-3.728,0-5.222,0v53.092
			c2.596,0,6.409,0,7.452,0V40.723l34.286,39.739c0,0,3.454,0,5.069,0V27.375C339.986,27.375,338.762,27.375,336.357,27.375z"/>
		<path fill="#EC592C" d="M216.694,38.017c-11.7,0-20.867,9.401-20.867,21.403c0,12.002,9.363,21.4,21.311,21.4
			c11.179,0,18.847-9.65,18.847-9.65l-4.563-4.795c0,0-5.233,7.709-14.107,7.709c-7.093,0-12.897-5.246-13.693-12.139h33.319
			C238.218,47.316,228.197,38.017,216.694,38.017z M216.694,44.752c6.479,0,11.594,4.459,12.812,10.992h-25.801
			C204.923,49.211,210.107,44.752,216.694,44.752z"/>
		<path fill="#EC592C" d="M267.154,39.17h-10.099V23.485c-2.498,1.318-5.193,2.788-7.533,4.014V39.17h-9.125
			c0,2.379,0,5.334,0,6.646h9.125v34.651c3.554,0,6.138,0,7.533,0V45.816h10.099C267.154,43.58,267.154,41.919,267.154,39.17z"/>
		<path fill="#EC592C" d="M418.883,38.017c-5.143,0-10.145,2.019-13.508,5.313v-4.956c-2.221,0-4.297,0-7.444,0v42.094
			c3.976,0,5.362,0,7.529,0V57.026c0-6.671,5.544-12.097,12.361-12.097c7.021,0,11.211,4.454,11.211,11.92v23.618
			c1.108,0,4.849,0,7.537,0v-23.53C436.569,45.799,429.293,38.017,418.883,38.017z"/>
		<path fill="#EC592C" d="M466.367,38.017c-5.153,0-10.156,2.019-13.518,5.313v-4.956c-2.221,0-4.298,0-7.436,0v42.094
			c3.976,0,5.354,0,7.526,0V57.026c0-6.671,5.548-12.097,12.361-12.097c7.016,0,11.213,4.454,11.213,11.92v23.618
			c1.11,0,4.848,0,7.529,0v-23.53C484.045,45.799,476.777,38.017,466.367,38.017z"/>
		<path fill="#EC592C" d="M370.927,39.596c-16.564,0-16.358,11.088-16.358,11.088l5.696,0.027c0,0,0.311-5.638,10.801-5.638
			c7.72,0,10.088,2.889,10.246,9.638v0.634c-2.626-0.649-7.015-1.317-11.971-1.317c-9.541,0-15.953,5.244-15.953,13.045
			c0,7.489,6.863,13.135,15.953,13.135c4.55,0,9.169-1.616,11.971-4.071v3.729c2.273,0,4.352,0,6.624,0V55.039
			C387.935,44.792,381.602,39.596,370.927,39.596z M381.243,67.395c0,4.793-5.522,7.297-10.969,7.297
			c-3.846,0-10.14-1.813-10.14-7.826c0-6.992,7.912-7.147,10.4-7.147c6.004,0,9.458,1.114,10.707,1.824v5.852H381.243z"/>
		<path fill="#EC592C" d="M511.507,77.35l17.255-38.905h-7.973l-12.812,28.628l-12.561-28.628h-8.126
			c1.801,4.146,16.367,37.635,16.367,37.635s-4.682,14.888-15.983,14.888l1.624,6.603C503.39,97.568,508.506,84.073,511.507,77.35z"
			/>
	</g>
	<path fill="#EC592C" d="M97.611,28.572C89.53,11.553,70.875,1.03,49.757,2.043C19.893,3.476-3.692,25.99-3.692,55.513
		c0,29.519,22.699,49.07,53.449,49.07c14.226,0,27.318-3.808,36.892-11.988l-5.354-5.213c-8.257,7.177-19.713,10.32-31.943,10.32
		c-25.408,0-43.798-15.972-43.798-42.729c0-25.408,19.35-43.189,43.893-44.779c19.241-1.244,36.186,8.488,42.446,23.619
		c4.266,10.32,1.935,22.729-4.115,30.546c-7.904,10.209-20.539,10.109-22.007,8.089c-0.602-0.827-0.606-2.198-0.085-3.813
		l5.153-18.078c0.753-2.722,1.427-5.368,1.427-7.857c0-7.785-6.094-13.431-14.479-13.431c-5.675,0-10.908,3.063-15.601,9.12
		l2.105-8.197H33.906l-1.819,6.983h3.011L24.702,78.352h7.727l5.469-21.684c3.545-12.85,10.638-20.528,18.966-20.528
		c4.472,0,7.603,2.791,7.603,6.793c0,1.882-0.377,3.625-1.123,6.376c-0.037,0.12-4.055,13.779-5.108,18.107
		c-0.375,1.551-1.039,5.497,1.029,8.623c1.273,1.922,3.334,3.074,6.101,3.597c3.472,0.653,18.506,1.089,28.348-11.801
		C100.463,59.003,104.76,43.645,97.611,28.572z"/>
</g>
<g enable-background="new    ">
	<path fill="#EC592C" d="M546.659,22.286c1.484,0,2.934,0.381,4.348,1.143c1.414,0.762,2.516,1.852,3.305,3.269
		c0.789,1.418,1.184,2.897,1.184,4.436c0,1.523-0.389,2.988-1.166,4.395c-0.777,1.406-1.867,2.498-3.27,3.275
		c-1.402,0.777-2.869,1.166-4.4,1.166c-1.531,0-2.998-0.389-4.4-1.166c-1.402-0.777-2.494-1.869-3.275-3.275
		c-0.781-1.406-1.172-2.871-1.172-4.395c0-1.539,0.397-3.018,1.19-4.436c0.793-1.418,1.896-2.508,3.31-3.269
		C543.726,22.667,545.175,22.286,546.659,22.286z M546.659,23.751c-1.242,0-2.451,0.318-3.627,0.955
		c-1.176,0.637-2.096,1.547-2.76,2.73c-0.664,1.184-0.996,2.416-0.996,3.697c0,1.273,0.326,2.494,0.979,3.662
		c0.652,1.168,1.564,2.078,2.736,2.73c1.172,0.652,2.394,0.979,3.668,0.979c1.273,0,2.496-0.326,3.668-0.979
		c1.172-0.652,2.082-1.563,2.73-2.73c0.649-1.168,0.973-2.389,0.973-3.662c0-1.281-0.33-2.514-0.99-3.697
		c-0.66-1.184-1.58-2.094-2.76-2.73C549.101,24.069,547.894,23.751,546.659,23.751z M542.78,36.021v-9.516h3.27
		c1.117,0,1.926,0.088,2.426,0.264c0.5,0.176,0.898,0.482,1.195,0.92c0.297,0.437,0.445,0.902,0.445,1.394
		c0,0.695-0.248,1.301-0.744,1.816c-0.496,0.516-1.154,0.805-1.975,0.867c0.336,0.141,0.605,0.309,0.809,0.504
		c0.383,0.375,0.851,1.004,1.406,1.887l1.16,1.863h-1.875l-0.844-1.5c-0.664-1.18-1.199-1.918-1.606-2.215
		c-0.281-0.219-0.691-0.328-1.23-0.328h-0.902v4.043H542.78z M544.315,30.665h1.863c0.891,0,1.498-0.133,1.822-0.398
		c0.324-0.266,0.486-0.617,0.486-1.055c0-0.281-0.078-0.533-0.234-0.756c-0.156-0.223-0.373-0.389-0.65-0.498
		c-0.277-0.109-0.791-0.164-1.541-0.164h-1.746V30.665z"/>
</g>
</svg>
