<?xml version="1.0" encoding="utf-8"?>
<!-- Generator: Adobe Illustrator 20.0.0, SVG Export Plug-In . SVG Version: 6.00 Build 0)  -->
<svg version="1.1" id="Layer_1" xmlns="http://www.w3.org/2000/svg" xmlns:xlink="http://www.w3.org/1999/xlink" x="0px" y="0px"
	 viewBox="0 0 80.947 72.447" enable-background="new 0 0 80.947 72.447" xml:space="preserve">
<path fill="#EC592A" d="M68.874,21.032C63.698,10.134,51.752,3.395,38.229,4.043C19.103,4.961,4,19.379,4,38.285
	c0,18.904,14.536,31.424,34.229,31.424c9.109,0,17.494-2.438,23.624-7.677l-3.428-3.339c-5.288,4.597-12.624,6.609-20.457,6.609
	c-16.271,0-28.047-10.228-28.047-27.362c0-16.271,12.391-27.658,28.108-28.676c12.322-0.797,23.173,5.436,27.182,15.126
	c2.732,6.609,1.239,14.555-2.635,19.561c-5.062,6.538-13.153,6.474-14.093,5.18c-0.385-0.529-0.388-1.408-0.054-2.441l3.3-11.577
	c0.482-1.743,0.913-3.438,0.913-5.032c0-4.985-3.903-8.601-9.272-8.601c-3.634,0-6.986,1.962-9.99,5.84l1.348-5.249h-6.65
	l-1.165,4.472h1.928L22.183,52.91h4.948l3.502-13.885c2.27-8.229,6.812-13.145,12.146-13.145c2.864,0,4.868,1.787,4.868,4.35
	c0,1.204-0.242,2.321-0.719,4.083c-0.024,0.077-2.597,8.824-3.272,11.595c-0.24,0.993-0.665,3.521,0.659,5.523
	c0.816,1.23,2.135,1.969,3.907,2.302c2.223,0.419,11.851,0.698,18.153-7.556C70.7,40.52,73.451,30.684,68.874,21.032"/>
</svg>
